<?xml version="1.0" encoding="UTF-8"?>
<svg xmlns="http://www.w3.org/2000/svg" width="512" height="512" viewBox="0 0 512 512" role="img" aria-label="aipedia.wiki Signal Orange logo">
  <defs>
    <linearGradient id="topHot" x1="120" y1="60" x2="388" y2="160" gradientUnits="userSpaceOnUse">
      <stop offset="0" stop-color="#fff7ed"/>
      <stop offset="0.16" stop-color="#fed7aa"/>
      <stop offset="0.52" stop-color="#fb923c"/>
      <stop offset="1" stop-color="#f97316"/>
    </linearGradient>
    <linearGradient id="leftFace" x1="88" y1="132" x2="216" y2="348" gradientUnits="userSpaceOnUse">
      <stop offset="0" stop-color="#fb923c"/>
      <stop offset="0.58" stop-color="#f97316"/>
      <stop offset="1" stop-color="#c2410c"/>
    </linearGradient>
    <linearGradient id="rightFace" x1="426" y1="130" x2="306" y2="362" gradientUnits="userSpaceOnUse">
      <stop offset="0" stop-color="#ffedd5"/>
      <stop offset="0.22" stop-color="#fb923c"/>
      <stop offset="0.72" stop-color="#ea580c"/>
      <stop offset="1" stop-color="#7c2d12"/>
    </linearGradient>
    <linearGradient id="bottomFace" x1="256" y1="284" x2="256" y2="478" gradientUnits="userSpaceOnUse">
      <stop offset="0" stop-color="#fb923c"/>
      <stop offset="1" stop-color="#ea580c"/>
    </linearGradient>
    <linearGradient id="centerHot" x1="216" y1="188" x2="308" y2="322" gradientUnits="userSpaceOnUse">
      <stop offset="0" stop-color="#ffedd5"/>
      <stop offset="0.52" stop-color="#fdba74"/>
      <stop offset="1" stop-color="#fb923c"/>
    </linearGradient>
    <filter id="softShadow" x="-20%" y="-20%" width="140%" height="145%">
      <feDropShadow dx="0" dy="16" stdDeviation="14" flood-color="#7c2d12" flood-opacity="0.24"/>
    </filter>
  </defs>
  <rect width="512" height="512" fill="none"/>
  <g filter="url(#softShadow)" stroke="#431407" stroke-opacity="0.13" stroke-width="2" stroke-linejoin="round">
    <polygon points="256,42 420,138 318,176 256,118" fill="url(#topHot)"/>
    <polygon points="256,42 92,138 194,176 256,118" fill="#fb923c"/>
    <polygon points="92,138 142,340 194,286 194,176" fill="url(#leftFace)"/>
    <polygon points="420,138 370,340 318,286 318,176" fill="url(#rightFace)"/>
    <polygon points="142,340 256,454 194,286" fill="#f97316"/>
    <polygon points="370,340 256,454 318,286" fill="url(#bottomFace)"/>
    <polygon points="194,176 256,118 318,176 318,286 256,344 194,286" fill="#7c2d12"/>
    <polygon points="224,202 256,176 288,202 288,260 256,286 224,260" fill="url(#centerHot)" stroke="#ffedd5" stroke-opacity="0.18"/>
    <polygon points="194,176 224,202 224,260 194,286" fill="#ea580c"/>
    <polygon points="318,176 288,202 288,260 318,286" fill="#9a3412"/>
    <polygon points="194,286 224,260 256,286 256,344" fill="#c2410c"/>
    <polygon points="318,286 288,260 256,286 256,344" fill="#fdba74"/>
  </g>
</svg>
