<svg xmlns="http://www.w3.org/2000/svg" fill="none" width="400" height="62" viewBox="0 0 173 27">
<path d="M9.55176 0c1.50704.00001 2.72944 1.23684 2.72944 2.76172v2.76074c0 1.52488-1.2224 2.76171-2.72944 2.76172H8.1875V9.3584h1.36426c1.50694.00001 2.72944 1.2359 2.72944 2.7607v2.7618c0 1.5248-1.2225 2.7607-2.72944 2.7607H8.1875v1.0742h1.36426c1.50704 0 2.72944 1.2369 2.72944 2.7617v2.7608c0 1.5249-1.2224 2.7617-2.72944 2.7617H6.82227c-1.50687-.0002-2.72852-1.237-2.72852-2.7617v-1.917H2.72949C1.22244 22.3213 0 21.0845 0 19.5596v-2.7617c.000238-1.5247 1.22259-2.7608 2.72949-2.7608h1.36426v-1.0742H2.72949c-1.5069 0-2.729254-1.2361-2.72949-2.7608V7.44043c0-1.52489 1.22244-2.76172 2.72949-2.76172h1.36426V2.76172C4.09375 1.23697 5.3154.000222 6.82227 0zm9.40034 0c1.507.000155 2.7286 1.23693 2.7286 2.76172v1.91699h1.3652c1.5069.00024 2.7285 1.23698 2.7285 2.76172v2.76167c-.0002 1.5246-1.2218 2.7606-2.7285 2.7608h-1.3652v1.0742h1.3652c1.5067.0002 2.7283 1.2362 2.7285 2.7608v2.7617c0 1.5247-1.2216 2.7615-2.7285 2.7617h-1.3652v1.917c0 1.5248-1.2216 2.7615-2.7286 2.7617h-2.7294c-1.507-.0001-2.7286-1.2369-2.7286-2.7617v-2.7608c0-1.5248 1.2216-2.7616 2.7286-2.7617h1.3642v-1.0742h-1.3642c-1.507-.0001-2.7285-1.236-2.7286-2.7607v-2.7618c.0001-1.5247 1.2216-2.76062 2.7286-2.7607h1.3642V8.28418h-1.3642c-1.507-.00008-2.7286-1.23688-2.7286-2.76172V2.76172c0-1.52484 1.2216-2.761643 2.7286-2.76172zm55.5723 7.90918c3.4065 0 6.2295 1.97014 6.2295 5.58102v8.2061h1.9463v2.9551h-2.9199c-1.1678-.0001-2.0116-.821-2.0117-1.9698v-.5586c-.5191 1.5428-2.0434 2.8564-4.5088 2.8565-3.0171 0-5.58-1.8385-5.5801-5.0225 0-3.0528 1.8811-4.8915 5.9687-5.3183l3.7959-.3936v-1.1816c0-1.2474-.9084-2.3311-2.9199-2.3311-1.7192.0001-2.66.952-2.8223 2.0352h-3.4384c.3569-3.01985 3.1788-4.85833 6.2607-4.85842M134.956 18.2822c0 2.3964 1.427 3.5127 3.406 3.5127 1.947 0 3.374-1.1164 3.374-3.5127V8.2373h3.407v10.1113c-.001 4.661-3.277 6.6308-6.781 6.6309-3.536 0-6.813-1.9699-6.813-6.6641V8.2373h3.407zm19.581-10.37302c3.406.00013 5.871 2.13412 6.423 4.95702h-3.341c-.324-1.2145-1.46-2.1337-3.082-2.1338-1.719 0-2.628.8865-2.628 1.9697 0 3.1841 9.31.7552 9.311 7.1885 0 3.2169-2.887 5.0888-6.229 5.0889-3.374 0-6.489-1.9372-7.008-5.3184h3.407c.357 1.4444 1.784 2.4297 3.601 2.4297 1.59 0 2.92-.7224 2.92-2.0351 0-3.7094-9.344-.887-9.344-7.2881 0-2.82301 2.629-4.85842 5.97-4.85842M47.042 2.3291c4.412.00009 6.8779 2.72444 6.8779 6.10547 0 1.83823-.5844 3.61053-2.4336 4.56253 1.8817.8535 3.4717 2.7579 3.4717 5.1543 0 3.9719-2.7578 6.4999-7.04 6.5h-9.8623V2.3291zm19.2422 9.0928h-4.7686v13.2295h-3.4072v-13.459c0-1.70695.9735-2.95504 2.7578-2.9551h5.418zm22.5615 13.2295h-3.4062V8.2373h3.4062zM100.407 7.90918c3.309 0 5.776 2.49522 5.776 5.90922v10.833h-3.31V14.4092c0-2.0352-1.232-3.5449-3.2763-3.5449-2.1412 0-3.5039 1.5096-3.5039 3.5449v10.2422H92.751V8.2373h3.3095v1.8389c.8111-1.08323 2.0112-2.16688 4.3465-2.16702m13.94.32812h3.341v2.9551h-3.341v10.3398h3.082v3.1192h-3.244c-2.077 0-3.18-1.3791-3.18-3.086v-10.373h-2.53V8.2373h2.692V3.6416h3.18zm14.606 3.1846h-4.769v13.2295h-3.407v-13.459c0-1.70699.974-2.9551 2.758-2.9551h5.418zm39.777-3.1846h3.342v2.9551h-3.342v10.3398h3.082v3.1192h-3.244c-2.076-.0002-3.178-1.3792-3.178-3.086v-10.373h-2.532V8.2373h2.694V3.6416h3.178zm-94.9517 9.0938c-1.7842.1969-2.7578.9191-2.7578 2.4619.0002 1.4441 1.2013 2.33 2.8233 2.33 2.1085-.0002 3.6005-1.674 3.6005-3.9716v-1.1817zM41.5918 21.5h6.1641c2.2057-.0001 3.6326-1.0837 3.6328-3.3154 0-2.3962-1.5243-3.4472-3.6328-3.4473h-6.1641zm-.0332-9.8486h5.4834c1.9789-.0001 3.3086-.7548 3.3086-3.1182 0-2.36341-1.427-3.05268-3.3086-3.05273h-5.4834zm47.4492-5.94144h-3.6982V2.3291h3.6982z" fill="#2C1FEA"/>
</svg>
