<svg width="130" height="28" viewBox="0 0 130 28" fill="none" xmlns="http://www.w3.org/2000/svg">
<g clip-path="url(#clip0_122_37)">
<rect x="16.2598" y="9.8338" width="11.3703" height="3.12465" transform="rotate(-180 16.2598 9.8338)" fill="#0D0B08"/>
<rect x="6.45117" y="6.70911" width="11.1099" height="2.69067" transform="rotate(90 6.45117 6.70911)" fill="#0D0B08"/>
<g clip-path="url(#clip1_122_37)">
<rect x="0.289062" y="3.2373" width="43.0508" height="43.1376" rx="21.5254" fill="#F2F2F2"/>
<rect x="8.63477" y="9.39978" width="13.5077" height="3.47183" fill="#0D0B08"/>
<rect x="10.1836" y="9.39978" width="9.20036" height="3.47183" transform="rotate(90 10.1836 9.39978)" fill="#0D0B08"/>
<rect x="0.289062" y="3.2373" width="21.6122" height="3.47183" fill="#0D0B08"/>
<rect x="0.289062" y="21.2908" width="21.5254" height="3.47183" fill="#0D0B08"/>
<rect x="0.289062" y="24.6758" width="21.6122" height="3.47183" transform="rotate(-90 0.289062 24.6758)" fill="#0D0B08"/>
<rect x="8.63477" y="15.1284" width="13.5077" height="3.47183" fill="#0D0B08"/>
</g>
</g>
<path d="M35.4857 21.2551C33.9834 21.2551 32.6936 20.9362 31.6165 20.2984C30.5393 19.6465 29.7102 18.7465 29.1291 17.5985C28.548 16.4363 28.2575 15.0969 28.2575 13.5804C28.2575 12.0639 28.548 10.7245 29.1291 9.56232C29.7102 8.40012 30.5393 7.49305 31.6165 6.84108C32.6936 6.18912 33.9834 5.86314 35.4857 5.86314C37.2715 5.86314 38.7314 6.30959 39.8652 7.2025C41.0132 8.08123 41.729 9.32137 42.0124 10.9229H39.0148C38.8306 10.1151 38.4337 9.48437 37.8243 9.03083C37.229 8.56311 36.4353 8.32926 35.4432 8.32926C34.0684 8.32926 32.9913 8.79697 32.2118 9.73239C31.4322 10.6678 31.0425 11.9505 31.0425 13.5804C31.0425 15.2103 31.4322 16.493 32.2118 17.4284C32.9913 18.3496 34.0684 18.8103 35.4432 18.8103C36.4353 18.8103 37.229 18.5977 37.8243 18.1725C38.4337 17.7331 38.8306 17.1307 39.0148 16.3654H42.0124C41.729 17.8961 41.0132 19.0937 39.8652 19.9583C38.7314 20.8228 37.2715 21.2551 35.4857 21.2551ZM46.9299 21.2551C46.0228 21.2551 45.2787 21.1134 44.6976 20.8299C44.1165 20.5323 43.6843 20.1425 43.4008 19.6606C43.1173 19.1788 42.9756 18.6473 42.9756 18.0662C42.9756 17.0882 43.3583 16.2945 44.1236 15.6851C44.889 15.0756 46.037 14.7709 47.5677 14.7709H50.2464V14.5158C50.2464 13.793 50.0409 13.2615 49.6299 12.9213C49.2189 12.5812 48.7086 12.4111 48.0992 12.4111C47.5464 12.4111 47.0645 12.5458 46.6535 12.815C46.2425 13.0702 45.9874 13.4528 45.8882 13.9631H43.2307C43.3016 13.1977 43.5567 12.5316 43.9961 11.9647C44.4496 11.3977 45.0307 10.9655 45.7394 10.6678C46.448 10.356 47.2417 10.2001 48.1204 10.2001C49.6228 10.2001 50.8062 10.5757 51.6708 11.3269C52.5354 12.078 52.9676 13.141 52.9676 14.5158V21H50.6503L50.3952 19.2992C50.0834 19.8662 49.644 20.3339 49.0771 20.7024C48.5244 21.0709 47.8086 21.2551 46.9299 21.2551ZM47.5464 19.1292C48.3259 19.1292 48.9283 18.874 49.3535 18.3638C49.7929 17.8536 50.0692 17.2229 50.1826 16.4717H47.8653C47.1425 16.4717 46.6252 16.6063 46.3134 16.8756C46.0016 17.1307 45.8457 17.4496 45.8457 17.8323C45.8457 18.2433 46.0016 18.5622 46.3134 18.789C46.6252 19.0158 47.0362 19.1292 47.5464 19.1292ZM58.8597 21.2551C57.9243 21.2551 57.1022 21.1063 56.3936 20.8087C55.6849 20.4969 55.118 20.0717 54.6928 19.5331C54.2676 18.9945 54.0125 18.3709 53.9275 17.6622H56.67C56.755 18.0733 56.9818 18.4276 57.3503 18.7252C57.7329 19.0087 58.2219 19.1504 58.8172 19.1504C59.4125 19.1504 59.8447 19.0299 60.114 18.789C60.3975 18.5481 60.5392 18.2717 60.5392 17.9599C60.5392 17.5063 60.3408 17.2016 59.944 17.0457C59.5471 16.8756 58.9944 16.7126 58.2857 16.5567C57.8322 16.4575 57.3715 16.3371 56.9038 16.1953C56.4361 16.0536 56.0038 15.8764 55.607 15.6638C55.2243 15.4371 54.9125 15.1536 54.6716 14.8134C54.4306 14.4591 54.3101 14.0268 54.3101 13.5166C54.3101 12.5812 54.6786 11.7946 55.4156 11.1568C56.1668 10.519 57.2156 10.2001 58.5621 10.2001C59.8093 10.2001 60.8014 10.4907 61.5384 11.0718C62.2896 11.6528 62.736 12.4536 62.8778 13.4741H60.3054C60.1495 12.6946 59.5613 12.3048 58.5408 12.3048C58.0306 12.3048 57.6337 12.404 57.3503 12.6024C57.081 12.8009 56.9463 13.0489 56.9463 13.3465C56.9463 13.6583 57.1519 13.9064 57.5629 14.0906C57.9739 14.2749 58.5196 14.4449 59.1999 14.6009C59.9369 14.7709 60.6101 14.9623 61.2195 15.1749C61.8431 15.3733 62.3392 15.678 62.7077 16.089C63.0762 16.4859 63.2605 17.0599 63.2605 17.8111C63.2746 18.463 63.1045 19.0512 62.7502 19.5756C62.3959 20.1 61.8857 20.511 61.2195 20.8087C60.5534 21.1063 59.7668 21.2551 58.8597 21.2551ZM68.9743 21C67.8688 21 66.983 20.7307 66.3169 20.1921C65.6507 19.6536 65.3177 18.6969 65.3177 17.3221V12.73H63.5106V10.4552H65.3177L65.6366 7.62769H68.0389V10.4552H70.8877V12.73H68.0389V17.3433C68.0389 17.8536 68.1452 18.2079 68.3578 18.4063C68.5846 18.5906 68.9672 18.6827 69.5058 18.6827H70.8239V21H68.9743ZM72.1611 21V10.4552H74.5634L74.7973 11.8796C75.1374 11.3694 75.5839 10.9655 76.1366 10.6678C76.7036 10.356 77.3555 10.2001 78.0925 10.2001C79.7224 10.2001 80.8775 10.8308 81.5579 12.0922C81.9405 11.5111 82.4508 11.0505 83.0885 10.7103C83.7405 10.3702 84.4492 10.2001 85.2145 10.2001C86.5893 10.2001 87.6452 10.6111 88.3822 11.4332C89.1192 12.2552 89.4877 13.4599 89.4877 15.0473V21H86.7665V15.3024C86.7665 14.3953 86.5893 13.7009 86.235 13.219C85.8948 12.7371 85.3633 12.4961 84.6405 12.4961C83.9035 12.4961 83.3082 12.7654 82.8547 13.304C82.4153 13.8426 82.1956 14.5938 82.1956 15.5575V21H79.4744V15.3024C79.4744 14.3953 79.2972 13.7009 78.9429 13.219C78.5886 12.7371 78.0429 12.4961 77.3059 12.4961C76.5831 12.4961 75.9949 12.7654 75.5414 13.304C75.102 13.8426 74.8823 14.5938 74.8823 15.5575V21H72.1611ZM94.6437 21.2551C93.7366 21.2551 92.9925 21.1134 92.4114 20.8299C91.8303 20.5323 91.398 20.1425 91.1146 19.6606C90.8311 19.1788 90.6894 18.6473 90.6894 18.0662C90.6894 17.0882 91.072 16.2945 91.8374 15.6851C92.6027 15.0756 93.7507 14.7709 95.2814 14.7709H97.9602V14.5158C97.9602 13.793 97.7546 13.2615 97.3436 12.9213C96.9326 12.5812 96.4224 12.4111 95.8129 12.4111C95.2602 12.4111 94.7783 12.5458 94.3673 12.815C93.9563 13.0702 93.7011 13.4528 93.6019 13.9631H90.9445C91.0153 13.1977 91.2705 12.5316 91.7098 11.9647C92.1634 11.3977 92.7445 10.9655 93.4531 10.6678C94.1618 10.356 94.9555 10.2001 95.8342 10.2001C97.3365 10.2001 98.52 10.5757 99.3846 11.3269C100.249 12.078 100.681 13.141 100.681 14.5158V21H98.3641L98.109 19.2992C97.7972 19.8662 97.3578 20.3339 96.7909 20.7024C96.2381 21.0709 95.5224 21.2551 94.6437 21.2551ZM95.2602 19.1292C96.0397 19.1292 96.6421 18.874 97.0673 18.3638C97.5066 17.8536 97.783 17.2229 97.8964 16.4717H95.5791C94.8563 16.4717 94.3389 16.6063 94.0271 16.8756C93.7153 17.1307 93.5594 17.4496 93.5594 17.8323C93.5594 18.2433 93.7153 18.5622 94.0271 18.789C94.3389 19.0158 94.75 19.1292 95.2602 19.1292ZM106.68 17.8536C106.17 17.8536 105.695 17.7969 105.255 17.6835L104.469 18.4701C104.71 18.5977 105.036 18.704 105.447 18.789C105.858 18.874 106.524 18.9591 107.445 19.0441C108.848 19.1717 109.869 19.5047 110.506 20.0433C111.144 20.5819 111.463 21.326 111.463 22.2756C111.463 22.8992 111.293 23.4874 110.953 24.0401C110.613 24.6071 110.088 25.0606 109.38 25.4007C108.671 25.7551 107.764 25.9322 106.659 25.9322C105.156 25.9322 103.944 25.6488 103.023 25.0818C102.102 24.5291 101.641 23.6929 101.641 22.5732C101.641 21.6236 102.102 20.8016 103.023 20.1071C102.74 19.9795 102.492 19.8449 102.279 19.7032C102.081 19.5614 101.903 19.4126 101.748 19.2567V18.7677L103.597 16.8119C102.775 16.089 102.364 15.1607 102.364 14.0268C102.364 13.3182 102.534 12.6733 102.874 12.0922C103.229 11.5111 103.725 11.0505 104.362 10.7103C105 10.3702 105.773 10.2001 106.68 10.2001C107.275 10.2001 107.828 10.2851 108.338 10.4552H112.335V12.1135L110.528 12.241C110.811 12.7796 110.953 13.3749 110.953 14.0268C110.953 14.7355 110.783 15.3804 110.443 15.9615C110.103 16.5426 109.607 17.0032 108.955 17.3433C108.317 17.6835 107.558 17.8536 106.68 17.8536ZM106.68 15.7701C107.233 15.7701 107.686 15.6213 108.04 15.3237C108.409 15.026 108.593 14.6009 108.593 14.0481C108.593 13.4953 108.409 13.0702 108.04 12.7725C107.686 12.4749 107.233 12.3261 106.68 12.3261C106.099 12.3261 105.631 12.4749 105.277 12.7725C104.922 13.0702 104.745 13.4953 104.745 14.0481C104.745 14.6009 104.922 15.026 105.277 15.3237C105.631 15.6213 106.099 15.7701 106.68 15.7701ZM104.129 22.2968C104.129 22.8212 104.37 23.211 104.851 23.4661C105.347 23.7354 105.95 23.8701 106.659 23.8701C107.339 23.8701 107.892 23.7283 108.317 23.4449C108.742 23.1756 108.955 22.8071 108.955 22.3394C108.955 21.9567 108.813 21.6378 108.529 21.3827C108.26 21.1276 107.714 20.9717 106.892 20.915C106.311 20.8724 105.773 20.8087 105.277 20.7236C104.866 20.9504 104.568 21.1984 104.384 21.4677C104.214 21.737 104.129 22.0134 104.129 22.2968ZM114.723 8.81823C114.227 8.81823 113.816 8.66941 113.49 8.37178C113.178 8.07414 113.022 7.69856 113.022 7.24502C113.022 6.79148 113.178 6.42298 113.49 6.13952C113.816 5.84188 114.227 5.69306 114.723 5.69306C115.219 5.69306 115.623 5.84188 115.935 6.13952C116.261 6.42298 116.424 6.79148 116.424 7.24502C116.424 7.69856 116.261 8.07414 115.935 8.37178C115.623 8.66941 115.219 8.81823 114.723 8.81823ZM113.362 21V10.4552H116.084V21H113.362ZM123.027 21.2551C121.95 21.2551 121 21.0213 120.178 20.5535C119.356 20.0858 118.704 19.4339 118.222 18.5977C117.755 17.7614 117.521 16.8048 117.521 15.7276C117.521 14.6505 117.755 13.6938 118.222 12.8576C118.704 12.0213 119.356 11.3694 120.178 10.9017C121 10.434 121.95 10.2001 123.027 10.2001C124.374 10.2001 125.507 10.5544 126.429 11.2631C127.35 11.9576 127.938 12.9213 128.193 14.1544H125.323C125.181 13.6442 124.898 13.2473 124.473 12.9639C124.062 12.6662 123.573 12.5174 123.006 12.5174C122.255 12.5174 121.617 12.8009 121.092 13.3678C120.568 13.9347 120.306 14.7213 120.306 15.7276C120.306 16.7339 120.568 17.5205 121.092 18.0874C121.617 18.6544 122.255 18.9378 123.006 18.9378C123.573 18.9378 124.062 18.7961 124.473 18.5126C124.898 18.2292 125.181 17.8252 125.323 17.3008H128.193C127.938 18.4914 127.35 19.448 126.429 20.1709C125.507 20.8937 124.374 21.2551 123.027 21.2551Z" fill="#0D0B08"/>
<defs>
<clipPath id="clip0_122_37">
<rect width="21.5254" height="21.5254" fill="white" transform="translate(0.289062 3.2373)"/>
</clipPath>
<clipPath id="clip1_122_37">
<rect x="0.289062" y="3.2373" width="43.0508" height="43.1376" rx="21.5254" fill="white"/>
</clipPath>
</defs>
</svg>
