<svg width="512" height="512" viewBox="0 0 512 512" fill="none" xmlns="http://www.w3.org/2000/svg">
<g clip-path="url(#clip0_6686_40)">
<path d="M317.243 0H194.757C87.1956 0 0 87.1956 0 194.757V317.243C0 424.804 87.1956 512 194.757 512H317.243C424.804 512 512 424.804 512 317.243V194.757C512 87.1956 424.804 0 317.243 0Z" fill="#0527FF"/>
<path d="M236.833 364.111C242.937 364.111 244.316 367.852 246.219 373.497L255.146 401.657C256.065 404.939 257.969 406.318 260.791 406.318H264.533C267.356 406.318 269.194 404.939 270.178 401.657L279.105 373.497C281.009 367.852 281.468 363.651 293.153 363.651C319.409 363.651 344.287 359.91 362.995 341.596C371.922 332.669 382.687 329.387 392.992 336.41L401.92 342.515C414.588 350.982 418.33 366.868 408.024 377.698C381.768 404.414 344.746 420.365 302.539 420.365H232.238C148.808 420.365 86.9084 358.466 86.9084 276.414V236.111C86.9084 154.059 148.808 92.1599 232.238 92.1599H302.539C344.746 92.1599 381.768 108.111 408.024 134.827C418.33 145.592 414.588 161.542 401.92 170.01L392.992 176.115C382.687 183.138 371.922 179.856 362.995 170.929C344.221 152.615 319.409 148.874 293.153 148.874L236.898 148.414C178.74 147.955 147.823 184.057 147.823 236.111V276.414C147.823 328.468 178.74 364.111 236.898 364.111H236.833Z" fill="white"/>
</g>
<defs>
<clipPath id="clip0_6686_40">
<rect width="512" height="512" fill="white"/>
</clipPath>
</defs>
</svg>
