<svg width="64" height="64" viewBox="0 0 64 64" fill="none" xmlns="http://www.w3.org/2000/svg">
<g clip-path="url(#clip0_2129_471)">
<g clip-path="url(#clip1_2129_471)">
<path d="M58.5409 18.0442L22.4819 10.6695C20.1176 10.1841 17.8943 12.0003 17.8943 14.4116V31.4939V32.402V49.4842C17.8943 51.8955 20.1176 53.712 22.4819 53.2265L58.5409 45.8518" stroke="black" stroke-width="1.82758" stroke-miterlimit="10" stroke-linecap="round" stroke-linejoin="round"/>
<path d="M30.6983 4.73539C30.6984 1.34782 34.161 -0.917709 37.2617 0.379183L37.4093 0.443562L37.4126 0.445442L56.7025 9.35428C58.3954 10.1174 59.4565 11.8082 59.4569 13.6442V21.1912C59.4569 23.9444 57.112 26.1189 54.3726 25.9069L32.5258 24.2763V39.6193L54.3692 37.9887L54.6252 37.9755C57.2487 37.9116 59.456 40.0302 59.4406 42.6889V50.2358C59.4406 52.086 58.3516 53.7519 56.6895 54.5248L56.6867 54.5257L37.413 63.4183L37.4135 63.4188C34.2705 64.8735 30.6983 62.5825 30.6983 59.1294V51.9373C30.5567 51.9931 30.405 52.0302 30.2458 52.0417L19.585 52.8093C18.6942 52.8733 17.9362 52.1673 17.9361 51.2742V43.3595C17.9361 43.0526 18.0277 42.7648 18.1851 42.5225L9.41491 43.1776H9.41164C6.67967 43.3713 4.33082 41.2037 4.33081 38.4614V25.4342C4.33101 22.6801 6.67776 20.5047 9.41823 20.7185H9.41775L17.9939 21.3585C17.9567 21.2261 17.9361 21.0869 17.9361 20.9431V12.6057C17.9361 11.3884 19.025 10.4599 20.227 10.6522L30.3783 12.2763C30.4899 12.2941 30.5967 12.3247 30.6983 12.3646V4.73539ZM54.5116 39.8111H54.5083L32.5258 41.452V50.9913L57.6135 45.7476V42.6823L57.6106 42.5272C57.5355 40.9328 56.1381 39.6842 54.5116 39.8111ZM17.5836 23.1607C17.7369 23.4005 17.8261 23.6847 17.8261 23.9882V40.1889C17.8261 40.3767 17.7909 40.5566 17.7289 40.7236L30.6983 39.7556V24.1395L17.5836 23.1607ZM32.5258 22.4436L54.5083 24.0845L54.5116 24.085L54.6675 24.093C56.2752 24.1322 57.6293 22.8309 57.6293 21.1912V18.0187L32.5258 12.7711V22.4436Z" fill="black"/>
</g>
</g>
<defs>
<clipPath id="clip0_2129_471">
<rect width="64" height="64" fill="white"/>
</clipPath>
<clipPath id="clip1_2129_471">
<rect width="55.3383" height="64" fill="white" transform="translate(4.33081 0.00878906)"/>
</clipPath>
</defs>
</svg>
