<svg width="40" height="40" viewBox="0 0 40 40" fill="none" xmlns="http://www.w3.org/2000/svg">
<rect width="40" height="40" rx="8" fill="#161F34"/>
<g clip-path="url(#clip0_4635_7356)">
<path d="M19.9368 24.023C22.399 24.023 24.3951 22.027 24.3951 19.5647C24.3951 17.1025 22.399 15.1064 19.9368 15.1064C17.4746 15.1064 15.4785 17.1025 15.4785 19.5647C15.4785 22.027 17.4746 24.023 19.9368 24.023Z" fill="#7FC8FF"/>
<path d="M8.26941 19.5645C8.26941 19.5645 14.0176 25.5846 19.8609 25.5831C25.7013 25.5831 31.4525 19.5645 31.4525 19.5645L34.7219 24.0227C27.0804 33.4981 12.6415 33.4981 5 24.0227L8.26941 19.5645Z" fill="#7FC8FF"/>
<path d="M8.26941 19.5648C8.26941 19.5648 14.0176 13.5446 19.8609 13.5461C25.7013 13.5461 31.4525 19.5648 31.4525 19.5648L34.7219 15.1065C27.0804 5.63117 12.6415 5.63117 5 15.1065L8.26941 19.5648Z" fill="#7FC8FF"/>
</g>
<defs>
<clipPath id="clip0_4635_7356">
<rect width="29.7219" height="23.1296" fill="white" transform="translate(5 8)"/>
</clipPath>
</defs>
</svg>
