<svg width="212" height="38" viewBox="0 0 212 38" fill="none" xmlns="http://www.w3.org/2000/svg">
<g clip-path="url(#clip0_219_2816)">
<g opacity="0.6">
<path d="M0.327161 14.4338L16.9747 24.1265V37.9292L0.327161 28.2365V14.4338Z" fill="white"/>
<path d="M0.327161 14.4338L16.9747 24.1265V37.9292L0.327161 28.2365V14.4338Z" fill="url(#paint0_linear_219_2816)"/>
<path d="M0.327161 14.4338L16.9747 24.1265V37.9292L0.327161 28.2365V14.4338Z" stroke="#A9A9A9" stroke-width="0.2"/>
<path d="M17.1074 24.1265L33.7551 14.4338V28.2365L17.1074 37.9292V24.1265Z" fill="url(#paint1_linear_219_2816)" stroke="#A9A9A9" stroke-width="0.2"/>
<path d="M17.0401 4.62598L33.6877 14.3186L17.0401 24.0112L0.392591 14.3186L17.0401 4.62598Z" fill="url(#paint2_linear_219_2816)"/>
<path d="M17.0401 4.62598L33.6877 14.3186L17.0401 24.0112L0.392591 14.3186L17.0401 4.62598Z" stroke="#A9A9A9" stroke-width="0.2"/>
</g>
<path d="M0.327161 14.4338L16.9747 24.1265V37.9292L0.327161 28.2365V14.4338Z" fill="white"/>
<path d="M0.327161 14.4338L16.9747 24.1265V37.9292L0.327161 28.2365V14.4338Z" fill="url(#paint3_linear_219_2816)"/>
<path d="M0.327161 14.4338L16.9747 24.1265V37.9292L0.327161 28.2365V14.4338Z" stroke="#A9A9A9" stroke-width="0.2"/>
<path d="M17.1074 24.1265L33.7551 14.4338V28.2365L17.1074 37.9292V24.1265Z" fill="url(#paint4_linear_219_2816)" stroke="#A9A9A9" stroke-width="0.2"/>
<path d="M17.0401 4.62598L33.6877 14.3186L17.0401 24.0112L0.392591 14.3186L17.0401 4.62598Z" fill="url(#paint5_linear_219_2816)"/>
<path d="M17.0401 4.62598L33.6877 14.3186L17.0401 24.0112L0.392591 14.3186L17.0401 4.62598Z" stroke="#A9A9A9" stroke-width="0.2"/>
<mask id="mask0_219_2816" style="mask-type:luminance" maskUnits="userSpaceOnUse" x="41" y="8" width="165" height="27">
<path d="M205.13 8.59082H41.877V34.0343H205.13V8.59082Z" fill="white"/>
</mask>
<g mask="url(#mask0_219_2816)">
<path d="M41.9424 33.3735V8.7561H51.0374C52.6952 8.7561 54.1563 9.0645 55.4214 9.68132C56.7081 10.2761 57.7115 11.1573 58.4313 12.3248C59.151 13.4703 59.5109 14.8691 59.5109 16.5213C59.5109 18.1515 59.1402 19.5503 58.3986 20.7178C57.6788 21.8634 56.6865 22.7445 55.4214 23.3613C54.1563 23.9781 52.6952 24.2865 51.0374 24.2865H46.3918V33.3735H41.9424ZM46.3918 20.3213H51.1029C51.91 20.3213 52.6078 20.1671 53.1967 19.8587C53.7856 19.5283 54.2436 19.0767 54.5708 18.5039C54.8979 17.9312 55.0615 17.2703 55.0615 16.5213C55.0615 15.7503 54.8979 15.0894 54.5708 14.5387C54.2436 13.966 53.7856 13.5254 53.1967 13.217C52.6078 12.8865 51.91 12.7213 51.1029 12.7213H46.3918V20.3213ZM65.5048 33.77C64.2616 33.77 63.182 33.5608 62.2659 33.1422C61.3499 32.7236 60.6412 32.1288 60.1394 31.3578C59.6378 30.5648 59.3869 29.6506 59.3869 28.6152C59.3869 27.6239 59.6051 26.7428 60.0412 25.9718C60.4777 25.1787 61.1536 24.5178 62.0696 23.9891C62.9857 23.4605 64.1419 23.086 65.5375 22.8657L71.361 21.9074V25.2118L66.3554 26.0709C65.5048 26.2251 64.8724 26.5005 64.4579 26.897C64.0437 27.2935 63.8363 27.8112 63.8363 28.45C63.8363 29.0668 64.0653 29.5625 64.5233 29.937C65.0033 30.2894 65.5922 30.4657 66.29 30.4657C67.1845 30.4657 67.9696 30.2784 68.6456 29.9039C69.3437 29.5074 69.878 28.9677 70.2486 28.2848C70.6412 27.6019 70.8375 26.8529 70.8375 26.0378V21.4118C70.8375 20.6408 70.5323 20.0019 69.9215 19.4952C69.3326 18.9665 68.5474 18.7022 67.5659 18.7022C66.6499 18.7022 65.832 18.9555 65.1122 19.4622C64.4144 19.9468 63.9017 20.5967 63.5746 21.4118L60.0739 19.6935C60.423 18.7462 60.9684 17.9312 61.7097 17.2483C62.4733 16.5434 63.3675 15.9926 64.3925 15.5961C65.4178 15.1996 66.5301 15.0013 67.7295 15.0013C69.1909 15.0013 70.4776 15.2767 71.59 15.8274C72.7023 16.3561 73.5641 17.1051 74.1746 18.0744C74.807 19.0216 75.1233 20.1341 75.1233 21.4118V33.3735H71.0665V30.3005L71.9826 30.2344C71.5246 31.0054 70.9795 31.6552 70.3468 32.1839C69.7144 32.6906 68.9946 33.0871 68.1875 33.3735C67.3808 33.6378 66.4863 33.77 65.5048 33.77ZM85.2427 33.5718C83.2363 33.5718 81.6767 33.021 80.5643 31.9196C79.4739 30.7961 78.9285 29.221 78.9285 27.1944V19.2639H75.8532V15.3978H76.1804C77.0529 15.3978 77.7292 15.1665 78.2088 14.7039C78.6887 14.2413 78.9285 13.5694 78.9285 12.6883V11.3005H83.2143V15.3978H87.3038V19.2639H83.2143V26.9631C83.2143 27.5578 83.3125 28.0645 83.5088 28.4831C83.727 28.9016 84.0542 29.221 84.4903 29.4413C84.9483 29.6616 85.5264 29.7718 86.2242 29.7718C86.377 29.7718 86.5514 29.7608 86.7477 29.7387C86.9659 29.7167 87.173 29.6947 87.3693 29.6726V33.3735C87.064 33.4175 86.715 33.4616 86.3224 33.5057C85.9298 33.5497 85.5699 33.5718 85.2427 33.5718ZM89.008 33.3735V15.3978H93.0321V19.3961L92.7049 18.8013C93.1194 17.4575 93.7626 16.5213 94.6352 15.9926C95.5293 15.4639 96.5981 15.1996 97.8414 15.1996H98.8883V19.0326H97.3506C96.1293 19.0326 95.1478 19.4181 94.4062 20.1891C93.6645 20.9381 93.2938 21.9955 93.2938 23.3613V33.3735H89.008ZM108.311 33.77C106.566 33.77 104.974 33.3625 103.535 32.5474C102.117 31.7323 100.983 30.6199 100.132 29.21C99.3034 27.8002 98.8889 26.1921 98.8889 24.3857C98.8889 22.5793 99.3034 20.9712 100.132 19.5613C100.983 18.1515 102.117 17.039 103.535 16.2239C104.953 15.4088 106.544 15.0013 108.311 15.0013C110.056 15.0013 111.637 15.4088 113.055 16.2239C114.473 17.039 115.596 18.1515 116.425 19.5613C117.275 20.9491 117.701 22.5573 117.701 24.3857C117.701 26.1921 117.275 27.8002 116.425 29.21C115.574 30.6199 114.44 31.7323 113.022 32.5474C111.605 33.3625 110.034 33.77 108.311 33.77ZM108.311 29.8048C109.271 29.8048 110.111 29.5735 110.83 29.1109C111.572 28.6483 112.15 28.0094 112.564 27.1944C113.001 26.3573 113.219 25.421 113.219 24.3857C113.219 23.3283 113.001 22.4031 112.564 21.61C112.15 20.7949 111.572 20.1561 110.83 19.6935C110.111 19.2088 109.271 18.9665 108.311 18.9665C107.33 18.9665 106.468 19.2088 105.727 19.6935C104.985 20.1561 104.396 20.7949 103.96 21.61C103.546 22.4031 103.338 23.3283 103.338 24.3857C103.338 25.421 103.546 26.3573 103.96 27.1944C104.396 28.0094 104.985 28.6483 105.727 29.1109C106.468 29.5735 107.33 29.8048 108.311 29.8048ZM119.315 33.3735V15.3978H123.339V18.9335L123.012 18.3057C123.426 17.2262 124.103 16.4112 125.04 15.8605C126 15.2877 127.112 15.0013 128.378 15.0013C129.686 15.0013 130.842 15.2877 131.845 15.8605C132.87 16.4332 133.666 17.2373 134.234 18.2726C134.801 19.286 135.084 20.4645 135.084 21.8083V33.3735H130.799V22.8326C130.799 22.0396 130.646 21.3567 130.34 20.7839C130.035 20.2112 129.61 19.7706 129.065 19.4622C128.541 19.1318 127.92 18.9665 127.2 18.9665C126.502 18.9665 125.88 19.1318 125.335 19.4622C124.79 19.7706 124.364 20.2112 124.059 20.7839C123.753 21.3567 123.601 22.0396 123.601 22.8326V33.3735H119.315ZM143.419 33.77C142.045 33.77 140.846 33.4616 139.821 32.8448C138.817 32.228 138.043 31.3688 137.498 30.2674C136.974 29.166 136.713 27.8773 136.713 26.4013V15.3978H140.998V26.0378C140.998 26.7868 141.14 27.4477 141.424 28.0205C141.729 28.5712 142.154 29.0118 142.7 29.3422C143.267 29.6506 143.899 29.8048 144.597 29.8048C145.295 29.8048 145.917 29.6506 146.462 29.3422C147.007 29.0118 147.433 28.5602 147.738 27.9874C148.043 27.4147 148.196 26.7318 148.196 25.9387V15.3978H152.482V33.3735H148.425V29.8378L148.785 30.4657C148.37 31.5671 147.683 32.3932 146.724 32.9439C145.786 33.4947 144.685 33.77 143.419 33.77ZM161.602 33.77C159.704 33.77 158.047 33.3184 156.629 32.4152C155.233 31.49 154.274 30.2454 153.75 28.6813L156.956 27.1283C157.414 28.1416 158.047 28.9347 158.854 29.5074C159.683 30.0802 160.599 30.3665 161.602 30.3665C162.387 30.3665 163.009 30.1903 163.467 29.8378C163.925 29.4854 164.154 29.0228 164.154 28.45C164.154 28.0975 164.056 27.8112 163.859 27.5909C163.685 27.3486 163.434 27.1503 163.107 26.9961C162.802 26.8199 162.464 26.6767 162.093 26.5665L159.181 25.7405C157.676 25.2999 156.531 24.628 155.746 23.7248C154.983 22.8216 154.601 21.7532 154.601 20.5196C154.601 19.4181 154.874 18.4599 155.419 17.6448C155.986 16.8077 156.76 16.1578 157.742 15.6952C158.745 15.2326 159.89 15.0013 161.177 15.0013C162.856 15.0013 164.339 15.4088 165.626 16.2239C166.913 17.039 167.829 18.1845 168.374 19.6605L165.103 21.2135C164.797 20.3984 164.285 19.7486 163.565 19.2639C162.845 18.7793 162.038 18.537 161.144 18.537C160.424 18.537 159.857 18.7022 159.443 19.0326C159.029 19.3631 158.821 19.7926 158.821 20.3213C158.821 20.6518 158.908 20.9381 159.083 21.1805C159.258 21.4228 159.497 21.621 159.803 21.7752C160.13 21.9294 160.501 22.0726 160.915 22.2048L163.761 23.0639C165.223 23.5045 166.346 24.1654 167.131 25.0465C167.938 25.9277 168.341 27.0071 168.341 28.2848C168.341 29.3642 168.058 30.3225 167.491 31.1596C166.924 31.9747 166.139 32.6135 165.135 33.0761C164.132 33.5387 162.954 33.77 161.602 33.77ZM176.721 33.3735L185.129 8.7561H190.887L199.295 33.3735H194.453L192.72 28.0865H183.297L181.531 33.3735H176.721ZM184.573 24.1213H191.444L187.387 11.8622H188.63L184.573 24.1213ZM200.372 33.3735V8.7561H204.822V33.3735H200.372Z" fill="white"/>
</g>
</g>
<defs>
<linearGradient id="paint0_linear_219_2816" x1="3.88385" y1="10.6663" x2="7.69949" y2="40.202" gradientUnits="userSpaceOnUse">
<stop stop-color="#F3DBFF"/>
<stop offset="0.475703" stop-color="#A388F2"/>
<stop offset="1" stop-color="#2A3EF5"/>
</linearGradient>
<linearGradient id="paint1_linear_219_2816" x1="31.8396" y1="34.5627" x2="14.4736" y2="17.3687" gradientUnits="userSpaceOnUse">
<stop offset="0.324002" stop-color="#8078E7"/>
<stop offset="1" stop-color="#E6E4FF"/>
</linearGradient>
<linearGradient id="paint2_linear_219_2816" x1="4.90702" y1="1.81728" x2="8.87296" y2="26.2115" gradientUnits="userSpaceOnUse">
<stop offset="0.475703" stop-color="#A388F2"/>
<stop offset="1" stop-color="#2A3EF5"/>
</linearGradient>
<linearGradient id="paint3_linear_219_2816" x1="3.88385" y1="10.6663" x2="7.69949" y2="40.202" gradientUnits="userSpaceOnUse">
<stop stop-color="#F3DBFF"/>
<stop offset="0.475703" stop-color="#A388F2"/>
<stop offset="1" stop-color="#2A3EF5"/>
</linearGradient>
<linearGradient id="paint4_linear_219_2816" x1="31.8396" y1="34.5627" x2="14.4736" y2="17.3687" gradientUnits="userSpaceOnUse">
<stop offset="0.324002" stop-color="#8078E7"/>
<stop offset="1" stop-color="#E6E4FF"/>
</linearGradient>
<linearGradient id="paint5_linear_219_2816" x1="4.90702" y1="1.81728" x2="8.87296" y2="26.2115" gradientUnits="userSpaceOnUse">
<stop offset="0.475703" stop-color="#A388F2"/>
<stop offset="1" stop-color="#2A3EF5"/>
</linearGradient>
<clipPath id="clip0_219_2816">
<rect width="212" height="38" fill="white"/>
</clipPath>
</defs>
</svg>
