<svg width="665" height="176" viewBox="0 0 665 176" fill="none" xmlns="http://www.w3.org/2000/svg">
<path d="M470.54 130.093H483.055C491.06 130.093 497.596 134.736 497.596 145.273V147.525C497.596 158.099 491.428 162.884 483.244 162.884H470.538V130.093H470.54ZM477.531 136.031V156.866H482.913C487.417 156.866 490.501 153.877 490.501 147.302V145.601C490.501 139.028 487.331 136.038 482.679 136.038H477.531V136.029V136.031ZM501.316 136.353H506.879L507.751 142.52C508.811 138.291 511.524 136.126 516.445 136.126H518.149V143.163H515.3C509.596 143.163 508.214 145.139 508.214 150.748V162.891H501.316V136.353ZM519.624 150.191V149.455C519.624 140.535 525.328 135.75 533.057 135.75C540.787 135.75 546.444 140.621 546.444 149.455V150.191C546.444 158.929 541.062 163.574 533.057 163.574C524.505 163.574 519.624 158.931 519.624 150.191ZM539.454 150.096V149.452C539.454 144.488 536.967 141.593 533.06 141.593C529.153 141.593 526.617 144.308 526.617 149.452V150.096C526.617 154.881 529.057 157.547 533.013 157.547C536.969 157.547 539.456 154.927 539.456 150.096H539.454ZM550.078 136.353H555.878L556.568 141.413C557.996 138.008 560.938 135.756 565.309 135.756C572.073 135.756 576.49 140.628 576.49 149.554V150.29C576.49 159.028 571.569 163.578 565.309 163.578C561.08 163.578 558.269 161.695 556.843 158.614V171.997H550.078V136.351V136.353ZM569.491 150.142V149.546C569.491 144.259 566.775 141.639 563.144 141.639C559.283 141.639 556.701 144.581 556.701 149.499V150.009C556.701 154.701 559.188 157.642 563.002 157.642C566.816 157.642 569.491 155.022 569.491 150.142ZM586.654 158.059L586.105 162.891H580.126V127.473H586.891V141.083C588.366 137.631 591.308 135.748 595.492 135.748C601.793 135.794 606.485 140.164 606.485 148.989V149.774C606.485 158.607 602.068 163.572 595.304 163.572C590.933 163.572 588.084 161.462 586.656 158.057L586.654 158.059ZM599.539 149.774V149.131C599.539 144.259 596.87 141.593 593.189 141.593C589.509 141.593 586.747 144.676 586.747 149.226V149.774C586.747 154.739 589.274 157.596 593.094 157.596C596.914 157.596 599.537 155.022 599.537 149.774H599.539ZM609.567 150.191V149.455C609.567 140.535 615.224 135.75 622.954 135.75C630.683 135.75 636.387 140.621 636.387 149.455V150.191C636.387 158.929 630.958 163.574 622.954 163.574C614.392 163.574 609.567 158.931 609.567 150.191ZM629.388 150.096V149.452C629.388 144.488 626.901 141.593 622.992 141.593C619.082 141.593 616.549 144.308 616.549 149.452V150.096C616.549 154.881 618.989 157.547 622.945 157.547C626.901 157.547 629.388 154.927 629.388 150.096ZM645.403 149.131L636.112 136.344H644.068L649.45 144.299L654.881 136.344H662.79L653.357 149.084L663.292 162.882H655.469L649.348 154.095L643.416 162.882H635.318L645.401 149.131H645.403Z" fill="#1E1919"/>
<path d="M370.034 141.929V162.501H365.992V141.929H361.68V138.83H365.992V133.53C365.992 128.679 368.776 126.972 373.178 126.972C374.076 126.972 374.975 127.062 375.693 127.197V130.52C375.244 130.431 374.526 130.341 373.493 130.341C371.157 130.341 370.034 131.194 370.034 134.024V138.83H375.693V141.929H370.034ZM380.029 162.501V138.83H383.846V143.277H383.936C385.014 140.806 387.979 138.381 391.437 138.381H391.841V142.603H391.078C386.856 142.603 384.071 145.028 384.071 149.61V162.501H380.029ZM404.681 163.085C397.719 163.085 394.126 158.054 394.126 150.643C394.126 143.321 398.168 138.246 404.771 138.246C411.823 138.246 415.326 143.321 415.326 150.643C415.326 158.054 411.329 163.085 404.681 163.085ZM404.726 141.345C400.414 141.345 398.303 144.894 398.303 150.643C398.303 156.437 400.234 159.94 404.816 159.94C409.218 159.94 411.149 156.437 411.149 150.643C411.149 144.894 409.263 141.345 404.726 141.345ZM420.823 162.501V138.83H424.641V142.827H424.731C425.809 140.402 428.549 138.246 432.322 138.246C435.915 138.246 438.61 139.863 439.463 143.142H439.553C440.452 140.671 443.371 138.246 447.279 138.246C451.726 138.246 454.78 140.402 454.78 146.016V162.501H450.737V147.858C450.737 146.151 450.737 144.31 449.884 143.142C449.075 142.019 447.773 141.615 446.201 141.615C441.799 141.615 439.823 144.444 439.823 148.307V162.501H435.78V147.858C435.78 146.151 435.78 144.355 434.927 143.187C434.118 142.064 432.816 141.615 431.244 141.615C426.842 141.615 424.866 144.444 424.866 148.217V162.501H420.823Z" fill="#1E1919"/>
<path d="M169.572 34.1679V48.9308C167.675 48.1139 165.625 47.7097 163.559 47.7499C154.289 47.7499 147.503 55.0679 147.503 66.4152V99.4668H131.763V34.1679H147.503V43.8307C151.029 37.2999 156.648 33.1288 163.825 33.1288C165.787 33.114 167.737 33.4653 169.572 34.1679Z" fill="#171D26"/>
<path d="M235.478 69.6891H183.535C184.716 80.1243 192.553 87.1904 202.344 87.1904C205.781 87.2518 209.172 86.3862 212.16 84.6869C215.149 82.9875 217.623 80.5136 219.327 77.5276L232.644 82.8796C227.418 93.7084 216.053 100.758 202.738 100.758C180.921 100.758 167.606 85.7429 167.606 66.8089C167.606 47.8748 181.977 32.86 202.346 32.86C221.234 32.86 235.512 46.4421 235.778 66.2882L235.48 69.6869L235.478 69.6891ZM184.951 58.2H218.51C217.511 54.6404 215.344 51.5211 212.359 49.3393C209.373 47.1595 205.741 46.0443 202.046 46.1755C198.285 46.0866 194.593 47.2082 191.518 49.3731C188.441 51.538 186.14 54.632 184.951 58.2Z" fill="#171D26"/>
<path d="M237.9 66.8089C237.9 47.3563 253.435 32.86 273.159 32.86C287.325 32.86 299.539 40.4299 304.892 53.3199L290.726 59.1904C289.338 55.6668 286.904 52.6533 283.752 50.5519C280.601 48.4504 276.882 47.3627 273.096 47.4346C261.73 47.4346 253.641 55.5398 253.641 66.7623C253.641 77.9847 261.732 86.09 273.096 86.09C276.882 86.1619 280.601 85.0742 283.752 82.9727C286.904 80.8713 289.338 77.8578 290.726 74.3342L304.892 80.2195C299.539 93.1413 287.388 100.679 273.159 100.679C253.357 100.758 237.9 86.2635 237.9 66.811V66.8089Z" fill="#171D26"/>
<path d="M309.521 1.52692H325.261V99.4519H309.521V1.52692Z" fill="#171D26"/>
<path d="M401.601 34.1678V99.4518H385.861V91.5815C380.887 97.3271 373.583 100.709 364.171 100.709C346.543 100.709 331.92 85.6941 331.92 66.7601C331.92 47.826 346.543 32.8113 364.171 32.8113C373.615 32.8113 380.887 36.21 385.861 41.9556V34.0853L401.601 34.1636V34.1678ZM386.318 66.8088C386.318 62.9868 385.186 59.2516 383.061 56.073C380.938 52.8944 377.92 50.4184 374.389 48.954C370.859 47.4917 366.973 47.1065 363.223 47.8514C359.472 48.5963 356.029 50.4354 353.326 53.1357C350.623 55.836 348.78 59.2792 348.033 63.027C347.285 66.7749 347.666 70.6603 349.127 74.1923C350.587 77.7243 353.061 80.7442 356.24 82.8689C359.417 84.9937 363.153 86.1301 366.973 86.1343C369.513 86.1449 372.032 85.6518 374.377 84.6847C376.726 83.7175 378.857 82.2933 380.652 80.4966C382.447 78.6999 383.867 76.5646 384.832 74.2156C385.797 71.8666 386.284 69.3482 386.271 66.8088H386.318Z" fill="#171D26"/>
<path d="M636.623 34.1678V99.4518H620.882V91.5815C615.909 97.3271 608.605 100.709 599.193 100.709C581.564 100.709 566.941 85.6941 566.941 66.7601C566.941 47.826 581.564 32.8113 599.193 32.8113C608.636 32.8113 615.909 36.21 620.882 41.9556V34.0853L636.623 34.1636V34.1678ZM621.34 66.8088C621.34 62.9868 620.207 59.2516 618.082 56.073C615.959 52.8944 612.941 50.4184 609.411 48.954C605.881 47.4917 601.995 47.1065 598.244 47.8514C594.494 48.5963 591.05 50.4354 588.348 53.1357C585.645 55.836 583.801 59.2792 583.054 63.027C582.307 66.7749 582.688 70.6603 584.149 74.1923C585.609 77.7243 588.083 80.7442 591.262 82.8689C594.439 84.9937 598.175 86.1301 601.995 86.1343C604.535 86.1449 607.053 85.6518 609.398 84.6847C611.748 83.7175 613.879 82.2933 615.674 80.4966C617.469 78.6999 618.889 76.5646 619.854 74.2156C620.819 71.8666 621.306 69.3482 621.293 66.8088H621.34Z" fill="#171D26"/>
<path d="M410.81 9.61512C410.777 7.74013 411.301 5.899 412.317 4.32239C413.333 2.74791 414.796 1.50991 416.519 0.769223C418.241 0.028537 420.144 -0.183089 421.988 0.159743C423.831 0.504691 425.528 1.38928 426.868 2.70347C428.206 4.01766 429.122 5.70007 429.501 7.53486C429.878 9.37176 429.702 11.2785 428.993 13.0138C428.284 14.7491 427.074 16.2347 425.518 17.2802C423.96 18.3256 422.129 18.8843 420.252 18.8843C417.778 18.8843 415.401 17.9129 413.634 16.1797C411.869 14.4465 410.853 12.089 410.806 9.61301L410.81 9.61512ZM412.243 34.1678H427.984V99.4519H412.243V34.1678Z" fill="#171D26"/>
<path d="M645.832 9.61512C645.798 7.74013 646.323 5.899 647.339 4.32239C648.355 2.74791 649.817 1.50991 651.54 0.769223C653.263 0.028537 655.166 -0.183089 657.009 0.159743C658.853 0.504691 660.55 1.38928 661.89 2.70347C663.227 4.01766 664.144 5.70007 664.523 7.53486C664.899 9.37176 664.724 11.2785 664.015 13.0138C663.306 14.7491 662.095 16.2347 660.539 17.2802C658.982 18.3256 657.151 18.8843 655.274 18.8843C652.799 18.8843 650.423 17.9129 648.655 16.1797C646.89 14.4465 645.874 12.089 645.828 9.61301L645.832 9.61512ZM647.265 34.1678H663.005V99.4519H647.265V34.1678Z" fill="#171D26"/>
<path d="M532.248 58.0581V99.4498H516.508V59.2369C516.561 57.6899 516.296 56.1472 515.731 54.706C515.168 53.2649 514.315 51.9528 513.225 50.8523C512.135 49.7519 510.834 48.8842 509.399 48.3044C507.964 47.7245 506.423 47.4431 504.876 47.479C497.951 47.479 493.385 52.9728 493.385 59.7554V99.4477H477.645V59.2348C477.698 57.6878 477.438 56.1472 476.875 54.706C476.314 53.2649 475.461 51.9528 474.373 50.8523C473.285 49.7519 471.983 48.8842 470.551 48.3044C469.116 47.7245 467.577 47.4431 466.03 47.479C458.977 47.479 454.539 52.9728 454.539 59.7554V99.4477H438.799V34.1636H454.539V40.5695C456.412 38.2014 458.789 36.2778 461.5 34.9445C464.209 33.6113 467.183 32.8981 470.201 32.8579C473.882 32.9468 477.488 33.9181 480.714 35.6894C483.942 37.4607 486.693 39.9833 488.744 43.0413C490.867 39.8733 493.745 37.283 497.121 35.5053C500.497 33.7277 504.26 32.8177 508.074 32.8579C521.846 32.8579 532.251 43.9534 532.251 58.056L532.248 58.0581Z" fill="#171D26"/>
<path d="M544.996 85.8976C543.98 87.4742 543.455 89.3153 543.489 91.1903L543.485 91.1882C543.532 93.6642 544.548 96.0217 546.313 97.7549C548.08 99.4881 550.457 100.459 552.931 100.459C554.808 100.459 556.639 99.9008 558.197 98.8554C559.752 97.8099 560.963 96.3243 561.672 94.589C562.381 92.8537 562.557 90.947 562.18 89.1101C561.801 87.2753 560.885 85.5929 559.547 84.2787C558.207 82.9645 556.51 82.0799 554.667 81.7349C552.823 81.3921 550.92 81.6037 549.198 82.3444C547.475 83.0851 546.012 84.3231 544.996 85.8976Z" fill="#171D26"/>
<path d="M76.2003 46.9944C88.9522 46.9944 99.2913 36.6565 99.2913 23.9062C99.2913 11.1558 88.9522 0.817932 76.2003 0.817932C63.4485 0.817932 53.1094 11.1558 53.1094 23.9062C53.1094 36.6565 63.4485 46.9944 76.2003 46.9944Z" fill="#171D26"/>
<path d="M46.1989 0.722778H0V46.9162H46.1989V0.722778Z" fill="#EE9AB2"/>
<path d="M76.2005 56.7693L88.2582 78.0948L100.316 99.4371H52.1021L64.1428 78.0948L76.2005 56.7693Z" fill="#FFC550"/>
<path d="M23.091 99.7652C35.8429 99.7652 46.1819 89.4273 46.1819 76.6769C46.1819 63.9265 35.8429 53.5887 23.091 53.5887C10.3391 53.5887 0 63.9265 0 76.6769C0 89.4273 10.3391 99.7652 23.091 99.7652Z" fill="#5263F3"/>
</svg>
