<svg width="95" height="24" fill="none" xmlns="http://www.w3.org/2000/svg"><path d="M15.41 6.417l-3.69 3.69a3.77 3.77 0 01-2.666 1.104H0L10.102 1.11C10.3.911 10.568.8 10.848.8h4.041a.83.83 0 01.83.83v4.04c0 .28-.112.549-.31.747zM8.95 23.856v-4.478a.83.83 0 00-.83-.83H3.642l5.726-5.725a3.77 3.77 0 012.665-1.104h9.054L8.95 23.856z" fill="#123AF8"/><path d="M78.49 8.506h-1.897v7.062h1.897V8.506zM32.483 10.482a11.97 11.97 0 00-1.565-.616 8.847 8.847 0 01-1.025-.36 1.897 1.897 0 01-.616-.422.881.881 0 01-.242-.63c0-.194.053-.367.159-.52a.973.973 0 01.456-.345c.199-.079.432-.118.7-.118.323 0 .584.053.782.16.198.105.35.255.457.45.106.193.163.406.173.636h2.021c-.01-.618-.17-1.156-.484-1.613a2.982 2.982 0 00-1.247-1.038 3.999 3.999 0 00-1.675-.353c-.646 0-1.228.115-1.745.346-.517.23-.918.551-1.205.962-.286.41-.429.874-.429 1.392 0 .637.146 1.156.436 1.557.291.402.637.702 1.039.9.401.199.92.405 1.557.617.443.147.787.272 1.032.374.245.101.45.237.616.408.167.171.25.386.25.644a.962.962 0 01-.173.575 1.05 1.05 0 01-.513.366 2.449 2.449 0 01-.837.125c-.332 0-.621-.055-.866-.166a1.139 1.139 0 01-.547-.492 1.821 1.821 0 01-.207-.782h-2.036c.01.646.169 1.212.478 1.696.309.485.74.857 1.294 1.115s1.191.388 1.911.388 1.332-.122 1.863-.367c.53-.244.94-.579 1.225-1.004.286-.424.43-.89.43-1.398 0-.655-.146-1.184-.437-1.586a2.844 2.844 0 00-1.031-.9zM36.983 11.496h3.752V9.67h-3.752V7.703h3.89V5.875h-5.898v9.692h6.037V13.74h-4.03v-2.244zM50.885 11.746c.544-.268.962-.637 1.253-1.108.29-.47.436-1.01.436-1.62 0-.61-.146-1.163-.436-1.634-.291-.47-.71-.84-1.253-1.108-.545-.267-1.196-.401-1.953-.401h-3.281v9.693h2.007v-3.42h.814l2.814 3.42h2.465l-3.079-3.727a3.54 3.54 0 00.213-.095zm-3.227-4.043h1.246c.351 0 .649.058.893.173.245.115.427.272.547.47.12.2.18.423.18.672 0 .25-.06.462-.18.665s-.302.36-.547.47c-.244.112-.542.167-.893.167h-1.246V7.703z" fill="#0E161E"/><path d="M58.887 9.223a2.628 2.628 0 00-1.232-.748 3.765 3.765 0 00-1.038-.131c-.6 0-1.173.157-1.717.47a3.65 3.65 0 00-1.323 1.316c-.337.563-.505 1.2-.505 1.91 0 .712.168 1.349.505 1.912a3.65 3.65 0 001.323 1.315c.544.314 1.116.471 1.717.471.6 0 1.075-.099 1.481-.298.289-.14.552-.34.79-.595v.727H60.7V8.51h-1.814v.713zm-.263 3.815c-.166.296-.4.528-.7.7-.3.17-.629.256-.989.256s-.704-.086-1.004-.257c-.3-.17-.535-.403-.706-.699a1.956 1.956 0 01-.256-.997c0-.37.085-.69.256-.99.171-.3.406-.535.706-.706.3-.17.635-.256 1.004-.256.37 0 .69.085.99.256.3.17.533.406.7.706.165.3.248.63.248.99s-.083.701-.249.997zM67.106 8.738c-.434-.263-.932-.394-1.495-.394-.324 0-.626.046-.907.138a3.007 3.007 0 00-.796.402 2.736 2.736 0 00-.388.333V8.51h-1.814v7.062h1.897v-3.836c0-.323.064-.61.194-.858.129-.25.313-.443.553-.582.24-.138.503-.208.79-.208.304 0 .567.067.79.201.22.134.387.326.497.575.11.249.167.54.167.872v3.835h1.897v-4.195c0-.572-.123-1.089-.367-1.55a2.75 2.75 0 00-1.018-1.088zM76.136 8.508h-2.188l-2.547 2.96V5.6h-1.897v9.97H71.4V12.49l2.687 3.078h2.27l-3.25-3.643 3.03-3.418zM84.916 8.738c-.434-.263-.933-.394-1.496-.394-.323 0-.625.046-.907.138a3.007 3.007 0 00-.796.402 2.73 2.73 0 00-.388.333V8.51h-1.814v7.062h1.897v-3.836c0-.323.065-.61.194-.858.13-.25.314-.443.554-.582.24-.138.503-.208.79-.208.304 0 .567.067.788.201.222.134.388.326.499.575.11.249.166.54.166.872v3.835H86.3v-4.195c0-.572-.123-1.089-.367-1.55a2.752 2.752 0 00-1.017-1.088zM92.587 8.51v.72a2.68 2.68 0 00-1.225-.755 3.692 3.692 0 00-1.033-.131c-.59 0-1.147.145-1.668.436-.522.29-.944.704-1.267 1.24-.324.535-.485 1.153-.485 1.855 0 .701.164 1.322.492 1.862.327.54.752.956 1.273 1.246.522.291 1.078.437 1.669.437.544 0 1.022-.097 1.433-.291.287-.135.528-.305.727-.507v.534c0 .342-.07.651-.208.928a1.523 1.523 0 01-.616.65c-.273.158-.603.236-.99.236-.296 0-.547-.041-.755-.124a1.749 1.749 0 01-.533-.326 1.69 1.69 0 01-.374-.505H87.09c.12.517.334.978.643 1.384.31.406.714.725 1.212.956.498.23 1.08.346 1.745.346.812 0 1.497-.166 2.056-.498a3.114 3.114 0 001.246-1.35c.272-.568.409-1.207.409-1.918V8.51h-1.814zm-.257 4.327a1.755 1.755 0 01-.671.664c-.286.162-.61.243-.97.243s-.696-.081-.982-.243a1.702 1.702 0 01-.665-.664 1.94 1.94 0 01-.236-.963c0-.341.079-.658.236-.948.157-.29.378-.517.665-.679.286-.16.613-.242.983-.242s.683.081.969.242c.286.162.51.388.671.679.162.29.243.607.243.948 0 .36-.081.681-.243.963zM78.49 5.6h-1.897v1.897h1.897V5.6z" fill="#0E161E"/></svg>