<svg xmlns="http://www.w3.org/2000/svg" viewBox="0 0 1600 400" width="1600" height="400">
  <defs>
    <linearGradient id="nG" x1="0%" y1="0%" x2="100%" y2="100%">
      <stop offset="0%" stop-color="#a78bfa"/>
      <stop offset="100%" stop-color="#60a5fa"/>
    </linearGradient>
    <linearGradient id="nL" x1="0%" y1="0%" x2="100%" y2="100%">
      <stop offset="0%" stop-color="#a78bfa" stop-opacity="0.7"/>
      <stop offset="100%" stop-color="#60a5fa" stop-opacity="0.7"/>
    </linearGradient>
  </defs>
  <!-- icon -->
  <g transform="translate(80,80) scale(0.47)">
    <g stroke="url(#nL)" stroke-width="4" fill="none">
      <line x1="256" y1="256" x2="128" y2="128"/>
      <line x1="256" y1="256" x2="384" y2="128"/>
      <line x1="256" y1="256" x2="128" y2="384"/>
      <line x1="256" y1="256" x2="384" y2="384"/>
      <line x1="256" y1="256" x2="96"  y2="256"/>
      <line x1="256" y1="256" x2="416" y2="256"/>
    </g>
    <circle cx="128" cy="128" r="28" fill="url(#nG)"/>
    <circle cx="384" cy="128" r="28" fill="url(#nG)"/>
    <circle cx="128" cy="384" r="28" fill="url(#nG)"/>
    <circle cx="384" cy="384" r="28" fill="url(#nG)"/>
    <circle cx="96"  cy="256" r="24" fill="url(#nG)"/>
    <circle cx="416" cy="256" r="24" fill="url(#nG)"/>
    <circle cx="256" cy="256" r="56" fill="url(#nG)"/>
    <circle cx="256" cy="256" r="20" fill="#ffffff" opacity="0.4"/>
  </g>
  <!-- wordmark -->
  <text x="400" y="240" font-family="Arial Black, Arial, sans-serif"
        font-size="140" font-weight="900" fill="url(#nG)">aipedia<tspan font-family="Arial, sans-serif" font-weight="400" opacity="0.7">.wiki</tspan></text>
  <text x="404" y="290" font-family="Arial, sans-serif"
        font-size="32" font-weight="500" fill="#64748b"
        letter-spacing="4">CONNECTED AI KNOWLEDGE</text>
</svg>
