<svg xmlns="http://www.w3.org/2000/svg" viewBox="0 0 1600 400" width="1600" height="400">
  <defs>
    <linearGradient id="lp1" x1="0%" y1="0%" x2="100%" y2="100%">
      <stop offset="0%" stop-color="#c4b5fd"/>
      <stop offset="100%" stop-color="#93c5fd"/>
    </linearGradient>
    <linearGradient id="lp2" x1="0%" y1="0%" x2="100%" y2="100%">
      <stop offset="0%" stop-color="#a78bfa"/>
      <stop offset="100%" stop-color="#60a5fa"/>
    </linearGradient>
    <linearGradient id="lp3" x1="0%" y1="0%" x2="100%" y2="100%">
      <stop offset="0%" stop-color="#7c3aed"/>
      <stop offset="100%" stop-color="#2563eb"/>
    </linearGradient>
    <linearGradient id="lpW" x1="0%" y1="0%" x2="100%" y2="0%">
      <stop offset="0%" stop-color="#a78bfa"/>
      <stop offset="100%" stop-color="#60a5fa"/>
    </linearGradient>
  </defs>
  <g transform="translate(80,80) scale(0.47)">
    <rect x="80" y="100" width="320" height="320" rx="40" ry="40" fill="url(#lp1)" opacity="0.85" transform="rotate(-6 240 260)"/>
    <rect x="100" y="120" width="320" height="320" rx="40" ry="40" fill="url(#lp2)"/>
    <rect x="120" y="140" width="320" height="320" rx="40" ry="40" fill="url(#lp3)" transform="rotate(6 280 300)"/>
    <g fill="#ffffff" opacity="0.55" transform="rotate(6 280 300)">
      <rect x="150" y="200" width="160" height="10" rx="5"/>
      <rect x="150" y="240" width="220" height="10" rx="5"/>
      <rect x="150" y="280" width="180" height="10" rx="5"/>
      <rect x="150" y="320" width="200" height="10" rx="5"/>
      <rect x="150" y="360" width="140" height="10" rx="5"/>
    </g>
  </g>
  <text x="400" y="240" font-family="Arial Black, Arial, sans-serif"
        font-size="140" font-weight="900" fill="url(#lpW)">aipedia<tspan font-family="Arial, sans-serif" font-weight="400" opacity="0.7">.wiki</tspan></text>
  <text x="404" y="290" font-family="Arial, sans-serif"
        font-size="32" font-weight="500" fill="#64748b"
        letter-spacing="4">THE LIVING AI TOOLS INDEX</text>
</svg>
