<svg xmlns="http://www.w3.org/2000/svg" viewBox="0 0 1600 400" width="1600" height="400">
  <defs>
    <linearGradient id="cN" x1="50%" y1="0%" x2="50%" y2="100%">
      <stop offset="0%" stop-color="#a78bfa"/>
      <stop offset="100%" stop-color="#60a5fa"/>
    </linearGradient>
    <linearGradient id="cS" x1="50%" y1="0%" x2="50%" y2="100%">
      <stop offset="0%" stop-color="#ffffff" stop-opacity="0.25"/>
      <stop offset="100%" stop-color="#ffffff" stop-opacity="0.08"/>
    </linearGradient>
    <linearGradient id="cW" x1="0%" y1="0%" x2="100%" y2="0%">
      <stop offset="0%" stop-color="#a78bfa"/>
      <stop offset="100%" stop-color="#60a5fa"/>
    </linearGradient>
  </defs>
  <g transform="translate(80,80) scale(0.47)">
    <circle cx="256" cy="256" r="200" fill="none" stroke="url(#cN)" stroke-opacity="0.45" stroke-width="6"/>
    <circle cx="256" cy="256" r="176" fill="none" stroke="url(#cN)" stroke-opacity="0.28" stroke-width="2"/>
    <g stroke="url(#cN)" stroke-opacity="0.55" stroke-width="6" stroke-linecap="round">
      <line x1="256" y1="62"  x2="256" y2="90"/>
      <line x1="450" y1="256" x2="422" y2="256"/>
      <line x1="256" y1="450" x2="256" y2="422"/>
      <line x1="62"  y1="256" x2="90"  y2="256"/>
    </g>
    <polygon points="256,256 236,256 256,410 276,256" fill="url(#cS)"/>
    <polygon points="256,256 236,256 256,102 276,256" fill="url(#cN)"/>
    <circle cx="256" cy="256" r="18" fill="url(#cN)"/>
    <circle cx="256" cy="256" r="8" fill="url(#cN)" opacity="0.6"/>
  </g>
  <text x="400" y="240" font-family="Arial Black, Arial, sans-serif"
        font-size="140" font-weight="900" fill="url(#cW)">aipedia<tspan font-family="Arial, sans-serif" font-weight="400" opacity="0.7">.wiki</tspan></text>
  <text x="404" y="290" font-family="Arial, sans-serif"
        font-size="32" font-weight="500" fill="#64748b"
        letter-spacing="4">NAVIGATING AI TOOLS HONESTLY</text>
</svg>
